<?xml version="1.0" standalone="no"?><svg xmlns="http://www.w3.org/2000/svg" viewBox="0 0 1440 320"><path fill="#000b76" fill-opacity="1" d="M0,224L26.7,208C53.3,192,107,160,160,133.3C213.3,107,267,85,320,90.7C373.3,96,427,128,480,149.3C533.3,171,587,181,640,165.3C693.3,149,747,107,800,96C853.3,85,907,107,960,133.3C1013.3,160,1067,192,1120,197.3C1173.3,203,1227,181,1280,160C1333.3,139,1387,117,1413,106.7L1440,96L1440,320L1413.3,320C1386.7,320,1333,320,1280,320C1226.7,320,1173,320,1120,320C1066.7,320,1013,320,960,320C906.7,320,853,320,800,320C746.7,320,693,320,640,320C586.7,320,533,320,480,320C426.7,320,373,320,320,320C266.7,320,213,320,160,320C106.7,320,53,320,27,320L0,320Z"></path></svg>