<?xml version="1.0" standalone="no"?><svg xmlns="http://www.w3.org/2000/svg" viewBox="0 0 1440 320"><path fill="#fff" fill-opacity="1" d="M0,160L26.7,144C53.3,128,107,96,160,90.7C213.3,85,267,107,320,112C373.3,117,427,107,480,128C533.3,149,587,203,640,197.3C693.3,192,747,128,800,122.7C853.3,117,907,171,960,192C1013.3,213,1067,203,1120,208C1173.3,213,1227,235,1280,208C1333.3,181,1387,107,1413,69.3L1440,32L1440,320L1413.3,320C1386.7,320,1333,320,1280,320C1226.7,320,1173,320,1120,320C1066.7,320,1013,320,960,320C906.7,320,853,320,800,320C746.7,320,693,320,640,320C586.7,320,533,320,480,320C426.7,320,373,320,320,320C266.7,320,213,320,160,320C106.7,320,53,320,27,320L0,320Z"></path></svg>